<?xml version="1.0" encoding="UTF-8" standalone="no"?>
<svg width="24px" height="24px" viewBox="0 0 24 24" version="1.1" xmlns="http://www.w3.org/2000/svg" xmlns:xlink="http://www.w3.org/1999/xlink">
    <!-- Generator: sketchtool 41.1 (35376) - http://www.bohemiancoding.com/sketch -->
    <title>3469E1B5-5EC1-4961-826D-F667674D2558</title>
    <desc>Created with sketchtool.</desc>
    <defs></defs>
    <g id="Page-1" stroke="none" stroke-width="1" fill="none" fill-rule="evenodd">
        <g id="03_Landing" transform="translate(-1232.000000, -234.000000)">
            <g id="Sidebar" transform="translate(1009.000000, 84.000000)">
                <g id="followers" transform="translate(223.000000, 150.000000)">
                    <circle id="Oval-2" fill="#0CD586" cx="12" cy="12" r="12"></circle>
                    <path d="M9.9193757,13.3255906 L8.27224262,10.739007 C7.99471757,10.2583195 7.38340961,10.0949336 6.90511699,10.3710759 C6.42348979,10.6491435 6.2634418,11.2596619 6.54019181,11.739007 L8.65175508,15.0549108 C8.87579388,15.4429574 9.38095215,15.6402119 9.81897149,15.5565539 C9.97903169,15.5512761 10.1403059,15.5074375 10.2889718,15.4216052 L18.944942,10.4240785 C19.4184088,10.1507223 19.5892517,9.53510907 19.3131093,9.05681644 L11.4542231,16.2503589 L19.3131093,9.05681644 C19.0350418,8.57518925 18.4244176,8.41520233 17.944942,8.69202769 L9.9193757,13.3255906 Z" id="Combined-Shape" fill="#FFFFFF" transform="translate(12.925218, 12.403447) rotate(-15.000000) translate(-12.925218, -12.403447) "></path>
                </g>
            </g>
        </g>
    </g>
</svg>