<?xml version="1.0" encoding="UTF-8" standalone="no"?>
<svg width="36px" height="36px" viewBox="0 0 36 36" version="1.1" xmlns="http://www.w3.org/2000/svg" xmlns:xlink="http://www.w3.org/1999/xlink">
    <!-- Generator: sketchtool 41.1 (35376) - http://www.bohemiancoding.com/sketch -->
    <title>B34B7528-377F-4A2D-B8E7-9E32474F20C1</title>
    <desc>Created with sketchtool.</desc>
    <defs></defs>
    <g id="Page-1" stroke="none" stroke-width="1" fill="none" fill-rule="evenodd">
        <g id="03_Landing" transform="translate(-170.000000, -14.000000)">
            <g id="Header">
                <g id="instagram_logo_inner" transform="translate(170.000000, 14.000000)">
                    <g id="Social_Icons">
                        <g id="_x37__stroke">
                            <g id="Instagram_1_">
                                <rect id="Rectangle-path" x="0" y="0" width="35.5828982" height="35.5651261"></rect>
                                <path d="M29.4234429,8.29028645 C29.4234429,9.46893696 28.4674305,10.424194 27.288469,10.424194 C26.1095075,10.424194 25.1534951,9.46893696 25.1534951,8.29028645 C25.1534951,7.11163595 26.1095075,6.15637889 27.288469,6.15637889 C28.4677085,6.15637889 29.4234429,7.11163595 29.4234429,8.29028645 L29.4234429,8.29028645 Z M17.7914491,23.7099914 C14.5161545,23.7099914 11.8610587,21.0562217 11.8610587,17.782563 C11.8610587,14.5089043 14.5161545,11.8551346 17.7914491,11.8551346 C21.0667437,11.8551346 23.7218395,14.5089043 23.7218395,17.782563 C23.7218395,21.0562217 21.0667437,23.7099914 17.7914491,23.7099914 L17.7914491,23.7099914 Z M17.7914491,8.65093906 C12.7456273,8.65093906 8.65526199,12.7392614 8.65526199,17.782563 C8.65526199,22.8258646 12.7456273,26.914187 17.7914491,26.914187 C22.8372708,26.914187 26.9276362,22.8258646 26.9276362,17.782563 C26.9276362,12.7392614 22.8372708,8.65093906 17.7914491,8.65093906 L17.7914491,8.65093906 Z M17.7914491,3.20419558 C22.542044,3.20419558 23.1046986,3.22225599 24.9805845,3.30783458 C26.7152508,3.38702255 27.6573636,3.67654491 28.2842342,3.92022159 C29.1145945,4.2428084 29.7072721,4.62818988 30.3299728,5.25057959 C30.9526735,5.87269144 31.3382476,6.46507307 31.6609956,7.29529648 C31.9045161,7.92185398 32.1944611,8.86349626 32.2736886,10.5972962 C32.35931,12.472523 32.3773794,13.0348966 32.3773794,17.7831187 C32.3773794,22.5313409 32.35931,23.0937145 32.2736886,24.9686635 C32.1944611,26.7024634 31.9047941,27.6441056 31.6609956,28.2706631 C31.3382476,29.1006087 30.9526735,29.6929903 30.3299728,30.31538 C29.7075501,30.9377697 29.1148725,31.3231512 28.2842342,31.645738 C27.6573636,31.8891369 26.7152508,32.1789371 24.9805845,32.258125 C23.1046986,32.3437036 22.542044,32.361764 17.7914491,32.361764 C13.0405762,32.361764 12.4779216,32.3437036 10.6020357,32.258125 C8.86736942,32.1789371 7.92525659,31.8894147 7.298386,31.645738 C6.46802572,31.3231512 5.87534807,30.9377697 5.25264735,30.31538 C4.63022462,29.6932682 4.24437257,29.1008865 3.92162457,28.2706631 C3.67810411,27.6441056 3.38815909,26.7024634 3.30893154,24.9686635 C3.22331019,23.0934366 3.20524075,22.5310631 3.20524075,17.7831187 C3.20524075,13.0348966 3.22331019,12.472523 3.30893154,10.5972962 C3.38815909,8.86349626 3.67782612,7.92185398 3.92162457,7.29529648 C4.24437257,6.46535092 4.62994663,5.87296929 5.25264735,5.25057959 C5.87507008,4.62818988 6.46774773,4.2428084 7.298386,3.92022159 C7.92525659,3.67682276 8.86736942,3.38702255 10.6020357,3.30783458 C12.4781996,3.22225599 13.0408542,3.20419558 17.7914491,3.20419558 L17.7914491,3.20419558 Z M17.7914491,0 C12.9596807,0 12.3536595,0.0205610885 10.4560902,0.106973231 C8.56241286,0.193385373 7.26891892,0.494021829 6.13749395,0.933584559 C4.96742818,1.38787347 3.97527691,1.9960927 2.98618353,2.98469206 C1.99709016,3.97329143 1.388567,4.96494717 0.934051077,6.13442854 C0.494268695,7.26556626 0.193482009,8.55813631 0.107026686,10.4508679 C0.020571363,12.3474893 0,12.9532079 0,17.782563 C0,22.6119181 0.020571363,23.2176367 0.107026686,25.1142582 C0.193482009,27.0069897 0.494268695,28.2995598 0.934051077,29.4306975 C1.388567,30.6001789 1.99709016,31.5918346 2.98618353,32.580434 C3.97527691,33.5690334 4.96742818,34.1769747 6.13749395,34.6315415 C7.26919691,35.0711042 8.56241286,35.3717407 10.4560902,35.4581528 C12.3536595,35.544565 12.9596807,35.5651261 17.7914491,35.5651261 C22.6232175,35.5651261 23.2292387,35.544565 25.1268079,35.4581528 C27.0204853,35.3717407 28.3137013,35.0711042 29.4454042,34.6315415 C30.61547,34.1769747 31.6076213,33.5690334 32.5967146,32.580434 C33.585808,31.5918346 34.1940532,30.6001789 34.6488471,29.4306975 C35.0886295,28.2995598 35.3894162,27.0069897 35.4758715,25.1142582 C35.5623268,23.2176367 35.5828982,22.6119181 35.5828982,17.782563 C35.5828982,12.9532079 35.5623268,12.3474893 35.4758715,10.4508679 C35.3894162,8.55813631 35.0886295,7.26556626 34.6488471,6.13442854 C34.1940532,4.96494717 33.585808,3.97329143 32.5967146,2.98469206 C31.6076213,1.9960927 30.61547,1.38815133 29.4454042,0.933584559 C28.3137013,0.494021829 27.0204853,0.193385373 25.1268079,0.106973231 C23.2292387,0.0205610885 22.6232175,0 17.7914491,0 L17.7914491,0 Z" id="Instagram" fill="#FFFFFF"></path>
                            </g>
                        </g>
                    </g>
                </g>
            </g>
        </g>
    </g>
</svg>