<?xml version="1.0" encoding="UTF-8" standalone="no"?>
<svg width="14px" height="19px" viewBox="0 0 14 19" version="1.1" xmlns="http://www.w3.org/2000/svg" xmlns:xlink="http://www.w3.org/1999/xlink">
    <!-- Generator: sketchtool 41.1 (35376) - http://www.bohemiancoding.com/sketch -->
    <title>F946BD2A-FD64-40C9-AF15-3C391E86AD7D</title>
    <desc>Created with sketchtool.</desc>
    <defs></defs>
    <g id="Page-1" stroke="none" stroke-width="1" fill="none" fill-rule="evenodd">
        <g id="04_Profile" transform="translate(-229.000000, -330.000000)" fill="#2EA7EF">
            <g id="Profile" transform="translate(170.000000, 84.000000)">
                <g id="pin_profile" transform="translate(59.000000, 246.000000)">
                    <g id="Capa_1">
                        <path d="M11.6661237,2.32250987 L11.6661237,2.32250987 C9.11811937,-0.197494448 4.98667639,-0.197494448 2.43831305,2.32250987 L2.43831305,2.32250987 C0.142309118,4.59328299 -0.116152864,8.86891162 1.83236329,11.4382651 L7.05221839,18.8938992 L12.2720735,11.4382651 C14.2205896,8.86891162 13.9621277,4.59328299 11.6661237,2.32250987 L11.6661237,2.32250987 Z M3.75453559,6.82287261 C3.75453559,4.98675926 5.25924235,3.49858773 7.11575696,3.49858773 C8.97227157,3.49858773 10.4769783,4.98675926 10.4769783,6.82287261 C10.4769783,8.65898596 8.97171136,10.1471575 7.11575696,10.1471575 C5.25924235,10.1471575 3.75453559,8.65898596 3.75453559,6.82287261 Z" id="Shape"></path>
                    </g>
                </g>
            </g>
        </g>
    </g>
</svg>