<?xml version="1.0" encoding="UTF-8" standalone="no"?>
<svg width="16px" height="14px" viewBox="0 0 16 14" version="1.1" xmlns="http://www.w3.org/2000/svg" xmlns:xlink="http://www.w3.org/1999/xlink">
    <!-- Generator: sketchtool 41.1 (35376) - http://www.bohemiancoding.com/sketch -->
    <title>7AF3E688-1FD8-45F7-B053-00E94164A5B1</title>
    <desc>Created with sketchtool.</desc>
    <defs></defs>
    <g id="Page-1" stroke="none" stroke-width="1" fill="none" fill-rule="evenodd">
        <g id="06_Favorites" transform="translate(-192.000000, -167.000000)" fill="#FFFFFF">
            <g id="menu-white-with-icons" transform="translate(169.000000, 83.000000)">
                <path d="M30.8864672,85.967115 C30.9416197,86.0547141 31.0580754,86.0551357 31.1134328,85.9676419 C32.2921364,84.1031819 34.7933706,83.4718566 36.6855703,84.4720261 C39.3750198,85.8933251 39.7212089,89.5444497 37.7206522,91.600869 C36.0661821,93.5502928 34.2181658,95.4755768 32.0885441,97.4719101 C31.4775618,98.0411465 30.5355625,98.0306051 29.9268355,97.4508273 C27.5994648,95.258002 25.8444286,93.4176818 24.2363972,91.4887081 C22.4140094,89.617607 22.6060177,86.4179712 24.8136524,84.7925904 C26.668537,83.4293745 29.5539929,83.8518744 30.8864672,85.9671148 L30.8864672,85.967115 Z M25.5094739,91.0556217 C26.9208348,92.6015358 28.4468804,94.0630768 30.4732793,95.8107604 C30.7693389,96.0626134 31.2555812,96.0626134 31.5505622,95.8135475 C33.4013386,94.2304719 35.005219,92.7027161 36.4545984,91.1433731 C37.9515235,89.7356318 38.7854114,86.6924767 36.4545984,85.5 C34.5,84.5 32.4084517,86.0796258 31.5727622,87.4449694 C31.3381795,87.8271406 30.6834151,87.8301811 30.4493718,87.4475032 C29.5406111,85.9609628 27.5,84.5 25.5094739,86 C23.5,87.5 24.1482653,89.7760027 25.5094739,91.0556217 Z" id="heart_select"></path>
            </g>
        </g>
    </g>
</svg>