<?xml version="1.0" encoding="UTF-8" standalone="no"?>
<svg width="14px" height="15px" viewBox="0 0 14 15" version="1.1" xmlns="http://www.w3.org/2000/svg" xmlns:xlink="http://www.w3.org/1999/xlink">
    <!-- Generator: sketchtool 41.1 (35376) - http://www.bohemiancoding.com/sketch -->
    <title>FBEFBCA4-8290-4C2C-82E3-1C2793C3FDEF</title>
    <desc>Created with sketchtool.</desc>
    <defs></defs>
    <g id="Page-1" stroke="none" stroke-width="1" fill="none" fill-rule="evenodd">
        <g id="05_Settings" transform="translate(-193.000000, -226.000000)" fill="#FFFFFF">
            <g id="menu-white-with-icons" transform="translate(169.000000, 83.000000)">
                <path d="M37.5992572,150.816557 C37.5992572,151.845106 37.4175495,152.777643 37.0541288,153.614196 C36.6975651,154.45075 36.2107257,155.167295 35.5935962,155.763854 C34.9764667,156.360412 34.2427792,156.830109 33.3925118,157.172959 C32.5422445,157.515809 31.6714192,157.673517 30.7800098,157.646089 C29.8817435,157.618661 29.0314889,157.419812 28.2292205,157.049534 C27.4200951,156.679256 26.727549,156.192417 26.1515614,155.589001 C25.5755738,154.985586 25.1161621,154.275897 24.7733123,153.459915 C24.4304626,152.643932 24.2693256,151.731966 24.2898966,150.723988 C24.3036106,149.716009 24.5813147,148.728617 25.1230173,147.761781 C25.6647199,146.794944 26.3984073,146.013259 27.3241017,145.4167 C27.5298115,145.286417 27.7492321,145.248704 27.9823699,145.30356 C28.2155077,145.358416 28.3903585,145.492126 28.5069274,145.704692 C28.6234963,145.910402 28.6543523,146.126394 28.5994963,146.352675 C28.5446404,146.578956 28.4246448,146.757235 28.2395059,146.887518 C27.3138116,147.490934 26.6658353,148.317189 26.2955576,149.366309 C26.1172757,149.887441 26.0281361,150.456563 26.0281361,151.073693 C26.0281361,151.683965 26.1584171,152.297657 26.4189829,152.914787 C26.6795487,153.531916 27.0361071,154.059897 27.4886687,154.498744 C27.9343734,154.937592 28.4657825,155.287294 29.0829121,155.547859 C29.6931846,155.808425 30.3274471,155.931849 30.9857186,155.918135 C31.6439902,155.904421 32.2679673,155.767283 32.8576689,155.506718 C33.4473705,155.246152 33.9582089,154.903307 34.3901996,154.478174 C34.8221903,154.05304 35.1718918,153.54563 35.4393146,152.955928 C35.7067374,152.366227 35.8507321,151.694251 35.8713031,150.939982 C35.8918741,150.185712 35.7033096,149.438311 35.3056038,148.697756 C34.9078981,147.9572 34.3593468,147.353794 33.6599333,146.887518 C33.4679374,146.750378 33.3445134,146.572099 33.2896574,146.352675 C33.2348015,146.133251 33.2656575,145.920688 33.3822264,145.714978 C33.5125093,145.509268 33.6942169,145.375559 33.9273548,145.313846 C34.1604926,145.252133 34.3799131,145.286417 34.585623,145.4167 C35.5113173,146.026973 36.2450047,146.822372 36.7867073,147.802922 C37.3284099,148.783473 37.5992572,149.788007 37.5992572,150.816557 Z M30.8828642,150.929696 C30.6771544,150.929696 30.4920183,150.843985 30.3274504,150.67256 C30.1491686,150.501136 30.060029,150.292 30.060029,150.045148 L30.060029,144.429298 C30.060029,144.182446 30.1491686,143.973311 30.3274504,143.801886 C30.5057323,143.630461 30.6908684,143.54475 30.8828642,143.54475 C31.0885741,143.537893 31.2599964,143.575606 31.3971363,143.65789 C31.6851301,143.829315 31.8291248,144.086448 31.8291248,144.429298 L31.8291248,150.045148 C31.8291248,150.381141 31.6851301,150.638275 31.3971363,150.816557 C31.2599964,150.89884 31.0885741,150.936553 30.8828642,150.929696 Z" id="logout_select"></path>
            </g>
        </g>
    </g>
</svg>