<?xml version="1.0" encoding="UTF-8" standalone="no"?>
<svg width="15px" height="15px" viewBox="0 0 15 15" version="1.1" xmlns="http://www.w3.org/2000/svg" xmlns:xlink="http://www.w3.org/1999/xlink">
    <!-- Generator: sketchtool 41.1 (35376) - http://www.bohemiancoding.com/sketch -->
    <title>3A4E5631-43F1-4B7F-BA82-E51B021D9BCD</title>
    <desc>Created with sketchtool.</desc>
    <defs></defs>
    <g id="Page-1" stroke="none" stroke-width="1" fill="none" fill-rule="evenodd">
        <g id="05_Settings" transform="translate(-192.000000, -107.000000)" fill="#FF9F41">
            <g id="menu-white-with-icons" transform="translate(169.000000, 83.000000)">
                <path d="M38,30.9245774 L38,32.0754226 C38,32.335502 37.8894679,32.5305585 37.6684005,32.6605982 C37.5643688,32.725618 37.4505858,32.7548765 37.3270481,32.7483745 L37.1417425,32.7483745 C36.6735997,32.7418725 36.3550073,32.9791914 36.1859558,33.4603381 C36.107932,33.6814055 36.0169056,33.9024696 35.9128739,34.1235371 C35.6918064,34.5721739 35.7470725,34.9687889 36.0786736,35.313394 C36.299741,35.5344614 36.4102731,35.7360199 36.4102731,35.9180754 C36.4102731,36.1001309 36.3452542,36.2594271 36.2152146,36.3959688 L35.4057217,37.2152146 C35.2691801,37.3452542 35.1098839,37.4102731 34.9278283,37.4102731 C34.7457728,37.4102731 34.5864766,37.3452542 34.449935,37.2152146 L34.3036411,37.0689207 C33.965538,36.7178136 33.568923,36.6592966 33.1137841,36.893368 C32.9057207,36.9973997 32.6911585,37.0884261 32.470091,37.1664499 C32.2490236,37.2379717 32.0734727,37.3615076 31.943433,37.5370611 C31.8133934,37.7126147 31.7483745,37.9109222 31.7483745,38.1319896 L31.7483745,38.3270481 C31.7483745,38.5156056 31.6833557,38.6749018 31.553316,38.8049415 C31.4232763,38.9349811 31.2639801,39 31.0754226,39 L29.9343303,39 C29.7457728,39 29.5864766,38.9349811 29.4564369,38.8049415 C29.3263973,38.6749018 29.2613784,38.5156056 29.2613784,38.3270481 L29.2613784,38.1027308 C29.2678804,37.6215841 29.0175578,37.2964898 28.5104031,37.1274382 C28.3283476,37.0624184 28.1300401,36.9778939 27.9154746,36.8738622 C27.4603358,36.6462928 27.0604699,36.7048097 26.7158648,37.0494148 L26.5598179,37.2152146 C26.4297783,37.3452542 26.2704821,37.4102731 26.0819246,37.4102731 C25.8933671,37.4102731 25.7340709,37.3452542 25.6040312,37.2152146 L24.7945384,36.3959688 C24.6644987,36.2594271 24.5994798,36.1001309 24.5994798,35.9180754 C24.5994798,35.7360199 24.6644987,35.5799746 24.7945384,35.449935 L24.970091,35.2743823 C25.3016922,34.9427812 25.3569582,34.5494171 25.1358908,34.0942783 C25.031859,33.8927168 24.9473345,33.6814055 24.8823147,33.4603381 C24.8042909,33.2392707 24.6775041,33.0637198 24.5019506,32.9336801 C24.326397,32.8036404 24.1313405,32.7418725 23.916775,32.7483745 L23.6827048,32.7483745 C23.4941473,32.7418725 23.3348511,32.6736027 23.2048114,32.5435631 C23.0747718,32.4135234 23.006502,32.2574782 23,32.0754226 L23,30.9245774 C23.006502,30.7425218 23.0747718,30.5864766 23.2048114,30.4564369 C23.3348511,30.3263973 23.4941473,30.2581275 23.6827048,30.2516255 L23.916775,30.2516255 C24.1313405,30.2581275 24.326397,30.1963596 24.5019506,30.0663199 C24.6775041,29.9362802 24.8042909,29.7607293 24.8823147,29.5396619 C24.9603385,29.3185945 25.044863,29.1072832 25.1358908,28.9057217 C25.3569582,28.4505829 25.3016922,28.0572188 24.970091,27.7256177 L24.7945384,27.550065 C24.6644987,27.4200254 24.5994798,27.2639801 24.5994798,27.0819246 C24.5994798,26.8998691 24.6644987,26.7405729 24.7945384,26.6040312 L25.6040312,25.7945384 C25.7340709,25.6644987 25.8933671,25.5994798 26.0819246,25.5994798 C26.2704821,25.5994798 26.4297783,25.6644987 26.5598179,25.7945384 L26.7158648,25.9505852 C27.0604699,26.2951903 27.4570849,26.3537072 27.9057217,26.1261378 C28.1137852,26.0221061 28.3283474,25.9310797 28.5494148,25.8530559 C28.7704822,25.7750321 28.9460332,25.6514963 29.0760728,25.4824447 C29.2061125,25.3133932 29.2678804,25.1183366 29.2613784,24.8972692 L29.2613784,24.6729519 C29.2613784,24.4843944 29.3263973,24.3250982 29.4564369,24.1950585 C29.5864766,24.0650189 29.7457728,24 29.9343303,24 L31.0754226,24 C31.2639801,24 31.4232763,24.0650189 31.553316,24.1950585 C31.6833557,24.3250982 31.7483745,24.4843944 31.7483745,24.6729519 L31.7483745,24.8777633 C31.7483745,25.3459061 31.9889443,25.6644985 32.470091,25.8335501 C32.6911585,25.9115739 32.9057207,26.0026003 33.1137841,26.106632 C33.5754249,26.3342014 33.97204,26.2756844 34.3036411,25.9310793 L34.449935,25.7945384 C34.5864766,25.6644987 34.7457728,25.5994798 34.9278283,25.5994798 C35.1098839,25.5994798 35.2691801,25.6644987 35.4057217,25.7945384 L36.2152146,26.6040312 C36.3452542,26.7405729 36.4102731,26.8998691 36.4102731,27.0819246 C36.4102731,27.2639801 36.3452542,27.4200254 36.2152146,27.550065 C35.7925857,27.9726939 35.6853046,28.4050693 35.893368,28.8472042 C36.0104037,29.0877775 36.107932,29.3185945 36.1859558,29.5396619 C36.3550073,30.0143067 36.6735997,30.2516255 37.1417425,30.2516255 L37.3270481,30.2516255 C37.5871274,30.2516255 37.782184,30.3654085 37.9122237,30.5929779 C37.9707415,30.6970096 38,30.8075417 38,30.9245774 Z M33.2795839,34.2405722 C33.8062445,33.7074096 34.1345897,33.1514983 34.2646294,32.5728218 C34.3946691,31.9941454 34.4336804,31.4772454 34.3816645,31.0221066 C34.3296486,30.5669678 34.2061128,30.1540981 34.0110533,29.783485 C33.5819224,28.9577332 32.9577414,28.3563088 32.1384915,27.9791938 C31.3192417,27.6020787 30.5227607,27.5045505 29.7490247,27.686606 C28.9752887,27.8686615 28.3218492,28.2262652 27.7886866,28.7594278 C27.255524,29.2925904 26.9239278,29.8485017 26.7938882,30.4271782 C26.6638485,31.0058546 26.6280881,31.5227546 26.686606,31.9778934 C26.7451238,32.4330322 26.8686597,32.8459019 27.0572172,33.216515 C27.4733441,34.0422668 28.0910232,34.6436912 28.9102731,35.0208062 C29.723021,35.3979213 30.5227529,35.4954495 31.3094928,35.313394 C32.0962328,35.1313385 32.7529232,34.7737348 33.2795839,34.2405722 Z" id="settings"></path>
            </g>
        </g>
    </g>
</svg>