<?xml version="1.0" encoding="UTF-8" standalone="no"?>
<svg width="15px" height="15px" viewBox="0 0 15 15" version="1.1" xmlns="http://www.w3.org/2000/svg" xmlns:xlink="http://www.w3.org/1999/xlink">
    <!-- Generator: sketchtool 41.1 (35376) - http://www.bohemiancoding.com/sketch -->
    <title>989770CC-4D23-4045-B967-4B2FF88B16E4</title>
    <desc>Created with sketchtool.</desc>
    <defs></defs>
    <g id="Page-1" stroke="none" stroke-width="1" fill="none" fill-rule="evenodd">
        <g id="04_Profile" transform="translate(-470.000000, -103.000000)" fill="#FFFFFF">
            <g id="input" transform="translate(450.000000, 84.000000)">
                <path d="M20.3125006,32.2625499 C20.3971364,32.177914 20.406902,32.0997898 20.3417975,32.0281749 C20.276693,31.9565599 20.2571619,31.8882012 20.2832037,31.8230968 C20.634768,30.8139771 21.0351546,29.8471899 21.4843756,28.9227061 C21.5234383,28.8445807 21.5950521,28.7924979 21.6992193,28.7664561 C21.8033865,28.7404143 21.8977866,28.7664557 21.9824225,28.8445811 L24.2285162,31.1004405 C24.3131521,31.1850763 24.3424486,31.2794764 24.3164068,31.3836436 C24.290365,31.4878108 24.2382822,31.5594247 24.1601568,31.5984874 C23.2877566,32.0216666 22.3177143,32.418798 21.2500006,32.7898936 C21.197917,32.8029145 21.1328135,32.7833835 21.0546881,32.7312999 C20.9765627,32.6792163 20.8984385,32.6889818 20.8203131,32.7605968 L20.6250006,32.9559093 C20.4557289,33.1251809 20.2864598,33.1284361 20.1171881,32.9656749 C19.9609373,32.7964032 19.9609373,32.6271341 20.1171881,32.4578624 L20.3125006,32.2625499 Z M24.1796881,24.3328624 C24.1796881,24.2286952 24.2187502,24.1440606 24.2968756,24.0789561 L28.5937506,19.967628 C28.860679,19.7006996 29.1666655,19.6453616 29.5117193,19.8016124 L29.9023443,19.967628 C30.2408877,20.1108579 30.5338535,20.0685406 30.7812506,19.8406749 C31.0286477,19.6193196 31.1914064,19.4793471 31.2695318,19.420753 C31.6601588,19.1277828 32.0768213,18.9878102 32.5195318,19.0008311 C32.9622424,19.013852 33.3365876,19.1766108 33.6425787,19.4891124 C33.9485698,19.788593 34.1080734,20.1596831 34.1210943,20.6023936 C34.1341152,21.0451042 34.0104186,21.448746 33.7500006,21.8133311 C33.4765617,22.1779163 32.1126431,23.6427454 29.6582037,26.2078624 C27.2037644,28.7729794 25.7845077,30.2508292 25.4003912,30.6414561 C25.1725255,30.8302592 24.9707046,30.8367695 24.7949225,30.6609874 L22.4707037,28.3367686 C22.2949216,28.1609865 22.3014319,27.9591656 22.490235,27.7312999 C23.2063844,27.0151505 25.2929521,25.0164725 28.7500006,21.7352061 C28.8151051,21.6766121 28.8476568,21.5984879 28.8476568,21.5008311 C28.8476568,21.3966639 28.8183603,21.3120294 28.7597662,21.2469249 C28.6881513,21.1818204 28.6067719,21.1492686 28.5156256,21.1492686 C28.4244793,21.1492686 28.3430999,21.1818204 28.271485,21.2469249 L24.7851568,24.5965343 C24.7200523,24.6551283 24.6386729,24.6844249 24.5410162,24.6844249 C24.4433595,24.6844249 24.3587249,24.6518731 24.28711,24.5867686 C24.215495,24.5216641 24.1796881,24.4370296 24.1796881,24.3328624 L24.1796881,24.3328624 Z" id="status"></path>
            </g>
        </g>
    </g>
</svg>