<?xml version="1.0" encoding="UTF-8" standalone="no"?>
<svg width="17px" height="14px" viewBox="0 0 17 14" version="1.1" xmlns="http://www.w3.org/2000/svg" xmlns:xlink="http://www.w3.org/1999/xlink">
    <!-- Generator: sketchtool 41.1 (35376) - http://www.bohemiancoding.com/sketch -->
    <title>BBC6D385-35D6-4B01-B57A-FED99B93AC82</title>
    <desc>Created with sketchtool.</desc>
    <defs></defs>
    <g id="Page-1" stroke="none" stroke-width="1" fill="none" fill-rule="evenodd">
        <g id="04_Profile" transform="translate(-586.000000, -103.000000)" fill="#FFFFFF">
            <g id="input" transform="translate(450.000000, 84.000000)">
                <g id="camera" transform="translate(136.000000, 19.000000)">
                    <g id="Capa_1">
                        <path d="M5.04056367,8.06451613 C5.04056367,9.99454839 6.58463483,11.559129 8.48936704,11.559129 C10.3940993,11.559129 11.9382022,9.99454839 11.9382022,8.06451613 C11.9382022,6.13448387 10.3941311,4.56990323 8.48939888,4.56990323 C6.58466667,4.56990323 5.04056367,6.13448387 5.04056367,8.06451613 L5.04056367,8.06451613 Z M15.917603,2.15054839 L12.203485,2.15054839 C11.9382022,1.07525806 11.6729195,0 10.6117247,0 L6.3670412,0 C5.30587828,0 5.04056367,1.07525806 4.7752809,2.15054839 L1.06116292,2.15054839 C0.47752809,2.15054839 0,2.63441935 0,3.22580645 L0,12.9032258 C0,13.4946129 0.47752809,13.9784839 1.06116292,13.9784839 L15.917603,13.9784839 C16.5012378,13.9784839 16.9787978,13.4946129 16.9787978,12.9032258 L16.9787978,3.22580645 C16.9787659,2.63441935 16.5012378,2.15054839 15.917603,2.15054839 L15.917603,2.15054839 Z M8.48939888,12.8360323 C5.88871723,12.8360323 3.78043071,10.6997742 3.78043071,8.06451613 C3.78043071,5.42929032 5.88868539,3.293 8.48939888,3.293 C11.0901124,3.293 13.198367,5.42925806 13.198367,8.06451613 C13.1983352,10.6997742 11.0901442,12.8360323 8.48939888,12.8360323 L8.48939888,12.8360323 Z M15.917603,5.37635484 L13.7952772,5.37635484 L13.7952772,4.30109677 L15.917603,4.30109677 L15.917603,5.37635484 L15.917603,5.37635484 Z" id="Shape"></path>
                    </g>
                </g>
            </g>
        </g>
    </g>
</svg>